<svg xmlns="http://www.w3.org/2000/svg" width="1em" height="1em" viewBox="0 0 24 24"><path fill="currentColor" d="M11 11.385q-1.237 0-2.119-.882T8 8.385t.881-2.12T11 5.386t2.119.88t.881 2.12t-.881 2.118t-2.119.882m0-1q.825 0 1.413-.588T13 8.385t-.587-1.413T11 6.385t-1.412.587T9 8.385t.588 1.412t1.412.588m9.862 11.184l-2.308-2.307q-.487.338-1.01.5t-1.04.161q-1.437 0-2.432-1t-.995-2.427t1-2.424t2.428-.995t2.423.998q.995.999.995 2.425q0 .521-.161 1.044t-.5 1.01l2.307 2.308q.14.14.15.344t-.15.363t-.353.16q-.195 0-.354-.16M16.5 18.923q1.03 0 1.727-.696q.696-.696.696-1.727t-.696-1.727t-1.727-.696t-1.727.696t-.696 1.727t.696 1.727t1.727.696M4 17.577v-.602q0-.639.358-1.161t.973-.841q.992-.512 2.549-.953t3.272-.374q.214.008.36.149t.146.34t-.146.349t-.36.16q-1.79-.017-3.208.41q-1.417.427-2.13.796q-.385.183-.6.481Q5 16.63 5 16.975v.64h5.87q.212 0 .356.144q.143.144.143.357t-.143.356t-.357.144H5.04q-.441 0-.74-.3q-.3-.299-.3-.739m7.194.039"/></svg>